<?xml version="1.0" encoding="UTF-8"?>
<svg xmlns="http://www.w3.org/2000/svg" xmlns:xlink="http://www.w3.org/1999/xlink" width="72pt" height="72pt" viewBox="0 0 72 72" version="1.1">
<g id="surface1">
<path style=" stroke:none;fill-rule:nonzero;fill:rgb(0%,0%,0%);fill-opacity:1;" d="M 68.300781 26.472656 L 68.300781 38.144531 L 70.753906 40.601562 L 65.636719 45.9375 L 60.453125 40.757812 L 64 37.527344 L 64 28.308594 C 48.925781 34.53125 44.09375 36.460938 40.753906 37.972656 C 37.410156 39.476562 35.007812 39.46875 31.6875 38.226562 C 28.375 36.972656 12.59375 31.21875 4.753906 27.46875 C -0.476562 24.960938 -0.8125 23.378906 4.839844 21.253906 C 12.21875 18.453125 24.414062 13.960938 30.878906 11.511719 C 34.710938 9.964844 36.734375 9.121094 40.246094 10.886719 C 46.519531 13.476562 60.855469 18.855469 67.980469 21.800781 C 74.195312 24.5 70.027344 25.386719 68.300781 26.472656 Z M 41.480469 42.59375 C 45.121094 41.089844 50.039062 38.605469 55.398438 36.308594 L 55.398438 54.742188 C 55.398438 54.742188 48.46875 62.113281 36.289062 62.113281 C 23.167969 62.113281 16.085938 54.742188 16.085938 54.742188 L 16.085938 37.535156 C 20.21875 39.21875 24.863281 40.664062 30.484375 42.59375 C 33.941406 43.828125 38.339844 44.25 41.480469 42.59375 Z M 41.480469 42.59375 "/>
</g>
</svg>
