<?xml version="1.0" encoding="utf-8"?>
<!-- Generator: Adobe Illustrator 19.2.1, SVG Export Plug-In . SVG Version: 6.00 Build 0)  -->
<svg version="1.1" id="layer" xmlns="http://www.w3.org/2000/svg" xmlns:xlink="http://www.w3.org/1999/xlink" x="0px" y="0px"
	 viewBox="0 0 652 652" style="enable-background:new 0 0 652 652;" xml:space="preserve">
<style type="text/css">
	.st0{fill:#512582;}
</style>
<path d="M361,340.6l7.3-8.7c5,4.1,10.3,6.8,16.7,6.8c5,0,8.1-2,8.1-5.3v-0.2c0-3.1-1.9-4.7-11.2-7.1c-11.3-2.9-18.5-6-18.5-17.1V309
	c0-10.1,8.1-16.8,19.5-16.8c8.1,0,15.1,2.6,20.7,7.1l-6.4,9.3c-4.9-3.4-9.8-5.5-14.5-5.5c-4.7,0-7.2,2.2-7.2,4.9v0.2
	c0,3.7,2.4,4.9,12,7.3c11.3,3,17.7,7,17.7,16.8v0.2c0,11.1-8.5,17.3-20.5,17.3C376.3,349.6,367.7,346.6,361,340.6"/>
<polygon points="425.7,304.3 408.7,304.3 408.7,292.9 455,292.9 455,304.3 438,304.3 438,348.8 425.7,348.8 "/>
<polygon points="462.8,292.9 505,292.9 505,303.9 475,303.9 475,315.2 501.4,315.2 501.4,326.1 475,326.1 475,337.9 505.4,337.9
	505.4,348.8 462.8,348.8 "/>
<path d="M514.7,292.9h25.5c7.1,0,12.6,2,16.3,5.7c3.1,3.1,4.8,7.5,4.8,12.8v0.2c0,9-4.9,14.7-12,17.3l13.6,19.9h-14.4l-12-17.9h-0.2
	H527v17.9h-12.3V292.9z M539.4,320.1c6,0,9.4-3.2,9.4-7.9V312c0-5.3-3.7-8-9.7-8H527v16H539.4z"/>
<polygon points="570.8,292.9 582.1,292.9 608.3,327.3 608.3,292.9 620.4,292.9 620.4,348.8 610,348.8 582.9,313.3 582.9,348.8
	570.8,348.8 "/>
<rect x="336.1" y="271.5" width="2" height="88.8"/>
<polygon class="st0" points="144.8,292.4 156.2,292.4 182.5,326.9 182.5,292.4 194.7,292.4 194.7,348.5 184.2,348.5 157,312.8
	157,348.5 144.8,348.5 "/>
<polygon class="st0" points="222.4,326.4 200.9,292.4 215.3,292.4 228.7,314.9 242.3,292.4 256.3,292.4 234.8,326.1 234.8,348.5
	222.4,348.5 "/>
<path class="st0" d="M261.6,324.4v-32.1H274v31.7c0,9.1,4.6,13.9,12.1,13.9c7.5,0,12.1-4.6,12.1-13.5v-32.2h12.4V324
	c0,17-9.5,25.3-24.6,25.3C270.8,349.4,261.6,340.9,261.6,324.4"/>
<path class="st0" d="M119.2,370.3H20.4v-98.8h98.8V370.3z M66.4,358.7c0.1,0.7,1.6,1,2,0l3.5-27.4h-8.4L66.4,358.7z M74.7,325.2
	H60.5v4.1h14.3V325.2z M70.6,323.2c18.1,0.7,19.4-15.8,19.4-22c0-0.4-0.2-0.4-0.3-0.1c-0.5,1.3-2.9,5.9-9.4,8.7
	c-5.8,2.5-9.3,8.2-9.9,13.3C70.4,323.1,70.5,323.2,70.6,323.2 M68.6,322c2.9-13.7,14-14.1,15-16.7c1.6-4.1-1.3-11.3-2-12.1
	c-0.1-0.1-0.2,0-0.2,0c-1.5,3.3-4,6.5-5.8,7.9c-2.5,2-12.2,9.2-7.3,20.8C68.5,322.1,68.6,322.1,68.6,322 M66.7,322.5
	c-6.1-12.9,6-21.3,8-23.1c0.3-0.3,0.2-0.5,0.2-0.8c0-4.1-2.3-10.7-3.1-11.6c-0.1-0.1-0.2-0.1-0.2,0.1c-1,4-6.6,10-7.7,11.3
	c-9.3,11.1-7.2,17.9,2.6,24.3C66.6,322.8,66.7,322.7,66.7,322.5 M63.9,323c-10.1-6-9.1-14.7-4.9-21c0.1-0.1,0.1-0.3,0.1-0.6
	c-0.2-1.5-1.8-5.3-2.5-6.4c-0.2-0.3-0.3-0.2-0.3-0.1c-0.1,1.7-2,6-5,11c-3.2,5.3-3.2,16.8,12.7,17.3C64.1,323.2,64.1,323.1,63.9,323
	"/>
</svg>
